<?xml version="1.0" standalone="no"?>
<svg viewBox="0 0 200 200" xmlns="http://www.w3.org/2000/svg">
  <path fill="#FF0066" d="M25.5,-34C39.3,-36.2,61.2,-42.1,63,-37C64.7,-32,46.4,-16,45.2,-0.7C44.1,14.6,60.1,29.3,58.8,35.2C57.6,41.2,39.1,38.5,26.5,36.6C13.8,34.6,6.9,33.4,-2.4,37.5C-11.7,41.7,-23.3,51.1,-29.9,49.6C-36.5,48,-38.1,35.5,-48.6,25.4C-59.1,15.3,-78.5,7.6,-80.6,-1.2C-82.6,-10,-67.4,-20,-59,-33.8C-50.6,-47.6,-49.2,-65.2,-40.5,-66C-31.9,-66.8,-15.9,-50.7,-5.1,-42C5.8,-33.2,11.6,-31.7,25.5,-34Z" transform="translate(100 100)" />
</svg>
