<?xml version="1.0" standalone="no"?>
<svg viewBox="0 0 200 200" xmlns="http://www.w3.org/2000/svg">
  <path fill="#FF0066" d="M26.4,-48.4C37.2,-39.5,50.9,-38.4,58.7,-31.6C66.5,-24.9,68.3,-12.4,71.7,2C75.1,16.4,80.1,32.8,75.6,45.3C71.2,57.8,57.3,66.4,43.1,74.3C28.9,82.2,14.5,89.4,1.1,87.4C-12.2,85.5,-24.4,74.5,-31.7,62.6C-39,50.7,-41.4,38,-50,27.4C-58.6,16.9,-73.4,8.4,-76.8,-2C-80.3,-12.4,-72.4,-24.8,-65.3,-38C-58.2,-51.2,-52,-65.2,-41.2,-74.1C-30.4,-83,-15.2,-86.8,-3.7,-80.4C7.8,-73.9,15.6,-57.3,26.4,-48.4Z" transform="translate(100 100)" />
</svg>
