<?xml version="1.0" standalone="no"?>
<svg viewBox="0 0 200 200" xmlns="http://www.w3.org/2000/svg">
  <path fill="#FF0066" d="M31.8,-50.8C40,-50.3,44.8,-39.5,44.8,-29.3C44.8,-19.1,40.1,-9.5,38.9,-0.7C37.7,8.2,40.2,16.4,39.3,25C38.4,33.7,34.1,42.7,27,52.1C19.9,61.4,10,71,-1,72.8C-12.1,74.6,-24.1,68.6,-33.6,60.7C-43,52.7,-49.9,42.7,-54.7,32.3C-59.6,21.8,-62.5,10.9,-65.6,-1.8C-68.8,-14.6,-72.3,-29.2,-65.6,-36.4C-58.9,-43.7,-42.1,-43.7,-29.4,-41.7C-16.8,-39.7,-8.4,-35.7,1.7,-38.6C11.8,-41.5,23.5,-51.3,31.8,-50.8Z" transform="translate(100 100)" />
</svg>
