<?xml version="1.0" standalone="no"?>
<svg viewBox="0 0 200 200" xmlns="http://www.w3.org/2000/svg">
  <path fill="#FF0066" d="M39.2,-60.8C52.2,-60.4,65.2,-52.8,66.7,-41.4C68.2,-30.1,58.3,-15,51.5,-3.9C44.7,7.2,41,14.3,35.3,18.6C29.7,22.8,22.2,24.1,16,30.9C9.8,37.7,4.9,50,-3.5,56.1C-12,62.2,-23.9,62.2,-36.1,58.9C-48.4,55.5,-60.8,48.9,-63.7,38.6C-66.6,28.2,-60,14.1,-58.5,0.9C-57,-12.4,-60.7,-24.8,-58.9,-37C-57,-49.1,-49.5,-61,-38.8,-62.7C-28,-64.4,-14,-56,-0.5,-55.2C13.1,-54.4,26.2,-61.2,39.2,-60.8Z" transform="translate(100 100)" />
</svg>
