<?xml version="1.0" standalone="no"?>
<svg viewBox="0 0 200 200" xmlns="http://www.w3.org/2000/svg">
  <path fill="#FF0066" d="M17.1,-24.2C23.1,-22.7,29.7,-19.6,39.5,-13.6C49.3,-7.5,62.2,1.7,63.7,11C65.2,20.2,55.1,29.7,47.2,43.5C39.2,57.3,33.4,75.5,24.2,74.7C15,73.9,2.5,54.1,-14.5,49.2C-31.5,44.3,-52.9,54.3,-67.2,50.9C-81.5,47.5,-88.8,30.7,-91,13.3C-93.2,-4.1,-90.5,-22.1,-81.8,-35.9C-73.2,-49.6,-58.7,-59.2,-44.1,-56.8C-29.5,-54.4,-14.7,-40.1,-4.6,-32.9C5.5,-25.7,11,-25.7,17.1,-24.2Z" transform="translate(100 100)" />
</svg>
