<?xml version="1.0" standalone="no"?>
<svg viewBox="0 0 200 200" xmlns="http://www.w3.org/2000/svg">
  <path fill="#FF0066" d="M24.9,-40.6C38,-35.6,58.2,-40.5,70,-35.3C81.8,-30.2,85.2,-15.1,76,-5.3C66.7,4.4,44.9,8.9,36,19.1C27.2,29.3,31.3,45.3,27.4,58.6C23.6,71.8,11.8,82.3,-1.9,85.6C-15.6,88.9,-31.2,85,-43.2,76.5C-55.3,67.9,-63.8,54.8,-68.9,41.3C-74.1,27.8,-75.9,13.9,-76.6,-0.4C-77.3,-14.7,-76.9,-29.4,-69.8,-39.6C-62.7,-49.7,-48.9,-55.3,-36.2,-60.4C-23.4,-65.6,-11.7,-70.3,-2.9,-65.3C5.9,-60.3,11.8,-45.5,24.9,-40.6Z" transform="translate(100 100)" />
</svg>
