<?xml version="1.0" standalone="no"?>
<svg viewBox="0 0 200 200" xmlns="http://www.w3.org/2000/svg">
  <path fill="#FF0066" d="M27.5,-34.9C42.4,-33.2,65.9,-37,69.5,-31.1C73.1,-25.3,56.8,-9.7,48.2,2.5C39.5,14.8,38.6,23.7,36.3,37.9C34,52,30.3,71.4,21.1,76C11.9,80.5,-2.8,70.2,-16.3,63C-29.8,55.7,-42.1,51.4,-45.8,42.3C-49.6,33.3,-44.8,19.5,-45.2,7.3C-45.6,-4.8,-51.3,-15.4,-52.8,-29C-54.2,-42.7,-51.5,-59.3,-42,-63.5C-32.5,-67.7,-16.3,-59.4,-5,-51.6C6.3,-43.8,12.6,-36.6,27.5,-34.9Z" transform="translate(100 100)" />
</svg>
