<?xml version="1.0" standalone="no"?>
<svg viewBox="0 0 200 200" xmlns="http://www.w3.org/2000/svg">
  <path fill="#FF0066" d="M35.5,-62.1C45.9,-55.5,54.1,-45.7,60.2,-34.8C66.2,-24,70.2,-12,68.7,-0.9C67.1,10.2,59.9,20.3,52.8,29.4C45.7,38.5,38.6,46.5,29.8,55C21,63.5,10.5,72.5,-2.1,76.1C-14.6,79.7,-29.3,77.9,-41.1,71.1C-53,64.4,-62,52.7,-60.5,40C-59.1,27.3,-47.2,13.7,-44.7,1.4C-42.3,-10.9,-49.4,-21.7,-49.4,-31.8C-49.3,-41.9,-42.1,-51.2,-32.7,-58.2C-23.3,-65.3,-11.6,-70.2,0.5,-71C12.6,-71.8,25.2,-68.6,35.5,-62.1Z" transform="translate(100 100)" />
</svg>
