<?xml version="1.0" standalone="no"?>
<svg viewBox="0 0 200 200" xmlns="http://www.w3.org/2000/svg">
  <path fill="#FF0066" d="M43.5,-64.6C53.4,-61.4,56.4,-44.3,62.6,-29.1C68.7,-13.9,78,-0.7,78.6,12.9C79.1,26.5,70.9,40.4,58.3,44.9C45.7,49.5,28.7,44.8,13.8,50.9C-1.1,57,-13.9,74,-25.4,75.6C-36.9,77.2,-47.1,63.4,-55.5,50.1C-63.9,36.8,-70.6,23.9,-74.2,9.7C-77.8,-4.6,-78.4,-20.3,-73.9,-35.2C-69.4,-50.1,-59.8,-64.1,-46.6,-65.8C-33.5,-67.6,-16.7,-56.9,0,-57C16.8,-57.1,33.7,-67.8,43.5,-64.6Z" transform="translate(100 100)" />
</svg>
