<?xml version="1.0" standalone="no"?>
<svg viewBox="0 0 200 200" xmlns="http://www.w3.org/2000/svg">
  <path fill="#FF0066" d="M26.6,-45.1C40.1,-38.2,60.6,-42.5,68.7,-36.9C76.9,-31.2,72.6,-15.6,69.1,-2C65.7,11.6,63.1,23.3,58.9,35.8C54.8,48.3,49,61.6,38.9,70.9C28.8,80.3,14.4,85.7,4.3,78.2C-5.8,70.8,-11.7,50.6,-22.9,41.9C-34.2,33.2,-51,36.2,-57.5,31.1C-64.1,26.1,-60.4,13,-60.8,-0.2C-61.1,-13.4,-65.5,-26.9,-60.9,-35.4C-56.4,-43.9,-43,-47.5,-31.3,-55.5C-19.7,-63.4,-9.8,-75.6,-1.7,-72.8C6.5,-69.9,13.1,-51.9,26.6,-45.1Z" transform="translate(100 100)" />
</svg>
