<?xml version="1.0" standalone="no"?>
<svg viewBox="0 0 200 200" xmlns="http://www.w3.org/2000/svg">
  <path fill="#FF0066" d="M30.6,-58.2C36.6,-49.6,36.2,-35.1,38.4,-24.5C40.6,-13.8,45.4,-6.9,50.5,3C55.7,12.9,61.3,25.7,58.8,36C56.4,46.2,45.9,53.8,34.8,59.9C23.7,66,11.8,70.5,3.3,64.7C-5.1,58.9,-10.3,42.8,-16.9,34.1C-23.5,25.4,-31.6,24.2,-37.7,19.7C-43.7,15.3,-47.7,7.6,-45.2,1.5C-42.6,-4.7,-33.5,-9.4,-30.7,-19.5C-27.9,-29.6,-31.4,-45,-27.4,-54.8C-23.3,-64.5,-11.6,-68.5,0.3,-69.1C12.3,-69.7,24.7,-66.9,30.6,-58.2Z" transform="translate(100 100)" />
</svg>
