<?xml version="1.0" standalone="no"?>
<svg viewBox="0 0 200 200" xmlns="http://www.w3.org/2000/svg">
  <path fill="#FF0066" d="M20.4,-37.8C24,-33.2,22.9,-22.9,31.6,-15.7C40.3,-8.4,58.9,-4.2,69.6,6.2C80.3,16.6,83.2,33.2,74,39.4C64.7,45.7,43.2,41.7,28.8,44.1C14.5,46.5,7.2,55.3,-4.3,62.7C-15.8,70.1,-31.5,76,-38.2,69.2C-44.9,62.3,-42.5,42.7,-39.5,29.1C-36.5,15.4,-33,7.7,-30.9,1.2C-28.9,-5.4,-28.4,-10.7,-31.6,-24.8C-34.8,-38.8,-41.7,-61.6,-37.1,-65.5C-32.4,-69.4,-16.2,-54.6,-3.9,-47.8C8.4,-41,16.8,-42.3,20.4,-37.8Z" transform="translate(100 100)" />
</svg>
