<?xml version="1.0" standalone="no"?>
<svg viewBox="0 0 200 200" xmlns="http://www.w3.org/2000/svg">
  <path fill="#FF0066" d="M31.1,-48.5C45.6,-39.2,66.2,-39.4,73.8,-31.2C81.4,-23,76.1,-6.4,73.5,10.4C70.8,27.2,70.8,44.3,60.6,48.1C50.4,52,30.1,42.7,15.1,43.3C0.1,44,-9.5,54.6,-23.3,59.6C-37,64.5,-54.9,63.8,-66.7,55.1C-78.6,46.4,-84.4,29.7,-79.3,16C-74.1,2.3,-58.1,-8.5,-50.2,-21.7C-42.3,-35,-42.6,-50.9,-35.6,-63.7C-28.6,-76.5,-14.3,-86.2,-3,-81.5C8.3,-76.9,16.7,-57.9,31.1,-48.5Z" transform="translate(100 100)" />
</svg>
