<?xml version="1.0" standalone="no"?>
<svg viewBox="0 0 200 200" xmlns="http://www.w3.org/2000/svg">
  <path fill="#FF0066" d="M28,-58.4C33.8,-45.2,34.4,-32.7,36.3,-23.1C38.2,-13.4,41.5,-6.7,49.5,4.6C57.5,16,70.2,31.9,66.7,38.7C63.1,45.5,43.3,43.1,29.5,43.4C15.7,43.6,7.8,46.5,-0.9,48C-9.6,49.6,-19.3,49.8,-33.5,49.9C-47.8,49.9,-66.7,49.6,-66.5,41.3C-66.4,32.9,-47.2,16.5,-36.6,6.1C-26.1,-4.3,-24.2,-8.6,-25.9,-19.6C-27.6,-30.6,-32.8,-48.3,-29.1,-62.8C-25.4,-77.3,-12.7,-88.5,-0.8,-87.2C11.1,-85.8,22.2,-71.7,28,-58.4Z" transform="translate(100 100)" />
</svg>
