<?xml version="1.0" standalone="no"?>
<svg viewBox="0 0 200 200" xmlns="http://www.w3.org/2000/svg">
  <path fill="#FF0066" d="M25.9,-43.7C35.6,-34.1,46.7,-30.3,58,-21.7C69.4,-13.2,80.8,0,79.6,11.8C78.4,23.5,64.6,33.7,51.4,38.8C38.1,44,25.5,44,14.5,45.5C3.4,46.9,-6,49.9,-19.6,52.4C-33.2,55,-50.9,57.2,-56.1,49.5C-61.3,41.9,-54,24.3,-57.4,7.6C-60.8,-9.1,-74.8,-24.8,-71.3,-32.6C-67.8,-40.3,-46.6,-40,-31.8,-47.2C-17,-54.4,-8.5,-69,-0.2,-68.7C8.1,-68.4,16.3,-53.2,25.9,-43.7Z" transform="translate(100 100)" />
</svg>
