<?xml version="1.0" standalone="no"?>
<svg viewBox="0 0 200 200" xmlns="http://www.w3.org/2000/svg">
  <path fill="#FF0066" d="M27.6,-42.7C36.8,-42.4,46.1,-37.2,55.6,-29.3C65,-21.3,74.7,-10.7,75.6,0.5C76.5,11.7,68.6,23.3,60.8,34.3C53.1,45.2,45.5,55.5,35.4,57.8C25.3,60.1,12.6,54.5,2.1,50.8C-8.3,47.1,-16.7,45.2,-26.1,42.5C-35.6,39.8,-46.1,36.3,-50.2,29C-54.3,21.8,-51.8,10.9,-56.4,-2.7C-61,-16.2,-72.7,-32.5,-71.7,-45C-70.7,-57.6,-57.1,-66.5,-43.1,-63.9C-29,-61.4,-14.5,-47.4,-2.7,-42.8C9.2,-38.2,18.4,-43,27.6,-42.7Z" transform="translate(100 100)" />
</svg>
