<?xml version="1.0" standalone="no"?>
<svg viewBox="0 0 200 200" xmlns="http://www.w3.org/2000/svg">
  <path fill="#FF0066" d="M44.6,-58.3C57.8,-51.8,68.4,-38.7,71.8,-24.3C75.2,-9.8,71.4,6.1,64.6,19.1C57.8,32.1,47.9,42.2,36.6,47.3C25.4,52.4,12.7,52.5,-2.4,55.8C-17.5,59.2,-35.1,65.8,-49.8,61.8C-64.5,57.8,-76.4,43.3,-76.2,28.4C-76.1,13.5,-63.9,-1.6,-53.5,-12.3C-43,-23,-34.4,-29.3,-25.8,-37.3C-17.2,-45.3,-8.6,-55.1,3.6,-60C15.7,-64.9,31.4,-64.9,44.6,-58.3Z" transform="translate(100 100)" />
</svg>
